<?xml version="1.0" encoding="UTF-8"?>
<svg id="Layer_2" data-name="Layer 2" xmlns="http://www.w3.org/2000/svg" xmlns:xlink="http://www.w3.org/1999/xlink" viewBox="0 0 506.68 558">
  <defs>
    <style>
      .cls-1 {
        fill: url(#linear-gradient);
      }
    </style>
    <linearGradient id="linear-gradient" x1="0" y1="279" x2="506.68" y2="279" gradientUnits="userSpaceOnUse">
      <stop offset="0" stop-color="#00239c"/>
      <stop offset=".09" stop-color="#12288f"/>
      <stop offset=".28" stop-color="#43376e"/>
      <stop offset=".55" stop-color="#914f39"/>
      <stop offset=".81" stop-color="#e76900"/>
    </linearGradient>
  </defs>
  <g id="Layer_1-2" data-name="Layer 1">
    <path class="cls-1" d="M28.61,172.97l45.87-19,11.93-35.34,12.93-38.35,36.26,17.97,33.43,16.56,45.87-19,32,77.25.62-11.5.88-16.18,2.92-53.62-45.55-22.57L99.52,16.56,66.09,0l-11.93,35.34-37.91,112.34L0,195.85l39.98,35.85,12.06,10.82,8.57,7.69-32-77.25ZM488.39,183.81c-13.39-3.84-27.34,3.91-31.16,17.29-1.2,4.17-1.27,8.38-.39,12.34l-29.94,16.18-20.89,4.23,13.58-47.54,21.91,6.26,6.67-23.31-22.11-6.31,4.39-16.3,11.41-13.72c1.04.48,2.12.87,3.25,1.18,13.39,3.84,27.34-3.93,31.16-17.31,3.84-13.39-3.91-27.34-17.3-31.16-13.39-3.82-27.34,3.93-31.18,17.31-2.16,7.59-.62,15.35,3.57,21.35l-13.25,15.97-5.11,18.96-36.62-10.47,18.91-66.16c11.03.09,21.2-7.16,24.39-18.27,3.84-13.39-3.91-27.36-17.3-31.18-13.39-3.82-27.34,3.93-31.18,17.31-3.18,11.12,1.63,22.64,11.03,28.4l-18.9,66.16-40.09-11.46,6.86-24.03.04-60c8.21-2.26,15.05-8.61,17.56-17.38,3.84-13.39-3.93-27.34-17.31-31.16-13.39-3.84-27.34,3.91-31.16,17.29-3.84,13.39,3.93,27.34,17.31,31.18h.04l-.04,58.16-6.35,22.21-44.74-12.8-6.67,23.31,21.91,6.26-27.87,97.44-52.36,21.72,23.82-59.83,8.17-20.53-27.34-66-152.92,63.35,27.34,66,20.28,8.74,59.15,25.45-79.03,32.73s-.05.02-.07,0c-14.56,1.79-35.03,70.42-7.27,125.4,22.41,44.33,72.42,72.17,122.13,77.97,8.82,16.99,24.37,30.47,44.26,36.16,38.36,10.96,78.34-11.23,89.31-49.59l11.85-41.45c2.56-.65,5.23-1.43,7.99-2.33,13.78-4.54,29.44-12.33,43.24-26,7.22-7.13,26.4-26.16,29.14-55.51,3.04-32.57-15.21-66.95-29.04-68.69-.55-.07-1.08-.09-1.61-.05-5.02.34-7.22,5.29-9.78,12.91l10.86-38,20.9-1.33,22.28,8.58c-1.34,12.01,6.14,23.54,18.13,26.97,13.37,3.84,27.34-3.91,31.16-17.3,3.82-13.39-3.93-27.34-17.31-31.18-10.24-2.94-20.81.92-26.93,8.91l-25.22-9.71-19.05,1.18,6.88-24.07,29.76-6.03,31.64-17.08c3.01,3.15,6.84,5.55,11.32,6.84,13.39,3.82,27.34-3.93,31.18-17.31,3.82-13.39-3.93-27.34-17.31-31.16ZM439.94,106.42c1.73-6.1,7.68-9.87,13.78-9.04.6.09,1.2.21,1.8.37,4.24,1.22,7.36,4.47,8.56,8.4.71,2.26.8,4.74.09,7.18-1.72,6.03-7.55,9.76-13.56,9.07-.67-.09-1.34-.21-2.02-.41-4.16-1.19-7.23-4.35-8.51-8.17v-.02c-.76-2.32-.87-4.88-.14-7.39ZM383.33,53.93c1.91-6.69,8.91-10.58,15.6-8.67,6.68,1.91,10.56,8.91,8.65,15.6-1.22,4.28-4.53,7.41-8.51,8.59-2.23.67-4.69.74-7.07.05-2.4-.69-4.44-2.03-5.98-3.78-2.76-3.11-3.91-7.52-2.69-11.8ZM115.45,220.06c-8.19,3.4-17.58-.5-20.97-8.67-3.4-8.19.49-17.6,8.68-20.99,8.19-3.38,17.58.51,20.97,8.7,3.4,8.19-.49,17.56-8.68,20.96ZM447.08,293.01c.83-2.92,2.64-5.31,4.97-6.92,2.99-2.05,6.84-2.83,10.61-1.75,6.68,1.91,10.58,8.91,8.67,15.6-1.91,6.69-8.91,10.56-15.6,8.65-4.79-1.38-8.14-5.36-8.95-9.97-.32-1.8-.23-3.73.3-5.61ZM311.36,21.75c1.91-6.68,8.9-10.56,15.58-8.65,6.68,1.91,10.58,8.9,8.67,15.58-.88,3.11-2.88,5.62-5.43,7.22-2.94,1.82-6.6,2.46-10.15,1.43-1.26-.35-2.41-.88-3.43-1.56-4.51-2.94-6.79-8.58-5.23-14.02ZM248.29,259.96l-49.39,172.72c-.14-.04,49.39-172.72,49.39-172.72ZM174.53,160.85c8.19-3.4,17.58.51,20.96,8.68,3.4,8.19-.48,17.58-8.68,20.97-8.19,3.4-17.58-.5-20.96-8.68-3.4-8.19.49-17.6,8.68-20.97ZM208.84,502.07c-.76-.02-1.5-.05-2.26-.1-5.69-.27-11.48-.9-17.26-1.89-.44-.07-.87-.14-1.31-.23-8.75-1.52-17.53-3.86-26.21-6.93-1.59-.58-3.17-1.17-4.74-1.79-2.42-.94-4.77-1.95-7.14-3.01-27.57-12.45-49.5-32.12-61.17-55.23-9.28-18.36-13.32-41.26-11.32-64.48.64-7.64,1.84-14.18,3.22-19.58,7.02,15.81,17.3,37.51,35.26,57.14,7.69,8.44,16.8,16.48,27.69,23.54,14.84,9.62,31.57,16.48,49.83,20.46.16.04.34.07.49.11,4.49.97,9.09,1.75,13.76,2.39l1.19.14h1.17c.34,0,.78.02,1.31.04h.12c3.29.09,9.76.58,17.24,2.76.23.05.46.12.69.19,2.32.69,4.72,1.52,7.16,2.58,7.52,3.24,15.28,8.35,21.43,16.39,4,5.27,6.56,10.79,8.19,15.83-2.44,1.26-4.9,2.42-7.39,3.45-1.06.44-2.16.87-3.22,1.27-8.49,3.15-17.63,5.25-27.2,6.3-1.08.12-2.16.23-3.24.32-5.32.42-10.79.55-16.3.34ZM311.53,500.8c-8.31,29.05-38.69,45.93-67.73,37.61-11.27-3.22-20.69-9.76-27.54-18.25,1.15-.02,2.28-.05,3.43-.09,6.88-.25,13.67-.96,20.27-2.14,2.65,1.56,5.54,2.81,8.63,3.7,19.79,5.66,40.5-5.84,46.16-25.62l7.64-26.72c1.95-.03,3.98-.11,6.08-.23,2.69-.14,5.5-.37,8.42-.72,1.18-.14,2.55-.3,4.07-.5l-9.43,32.96ZM310.31,302.29c-1.49,5.15-6.84,8.14-11.99,6.67-5.15-1.47-8.13-6.84-6.67-11.99,1.49-5.15,6.84-8.14,11.99-6.67,5.15,1.49,8.14,6.84,6.67,11.99ZM314.03,359.84c-1.47,5.15-6.84,8.12-11.99,6.65-5.15-1.47-8.14-6.84-6.65-11.99,1.47-5.15,6.83-8.12,11.97-6.65,5.15,1.47,8.13,6.84,6.67,11.99ZM394.37,338.72c1.04,1.98,2.09,4.26,3.11,6.84,4.26,10.84,6.07,22.58,5.09,33.09-2.14,22.81-17.37,37.9-23.87,44.34-6.88,6.84-15.01,12.5-24.21,16.87-1.52.73-3.08,1.43-4.65,2.07-1.26.51-2.49,1.01-3.73,1.45-4.39,1.63-8.59,2.87-12.52,3.82-2.51.62-4.92,1.11-7.16,1.52-4.7.85-8.7,1.33-11.65,1.68-.32.04-.62.07-.94.09-2.07.25-4.14.42-6.22.53-1.75.11-3.5.18-5.25.21-1.06-7.39-.88-13.88.55-19.47.65-2.55,1.57-4.93,2.76-7.09,2.9-5.27,6.65-8.24,12.73-11.39,2.09-1.06,4.44-2.16,7.14-3.38.6-.27,1.24-.55,1.87-.83,3.75-1.66,7.76-3.47,11.95-5.61,2.65-1.34,5.36-2.83,8.13-4.51,1.24-.76,2.49-1.56,3.75-2.39,3.47-2.32,7-4.97,10.56-8.06,3.08-2.71,6.17-5.71,9.23-9.14.44-.5.9-1.01,1.34-1.52,12.34-14.25,18.21-28.35,21.98-39.12ZM346.8,377.5c-.88.69-1.75,1.34-2.62,1.98-4.03,2.92-8.05,5.31-11.97,7.36-2.46,1.29-4.88,2.44-7.25,3.54l51.36-179.64-81.24,12.57-61.4,214.74c-6.7-1.95-12.72-2.79-17.07-3.18-.05,0-.12-.02-.18-.02l81.05-283.45,105.35,30.12-56.02,195.98ZM325.89,258.35c1.47-5.15,6.84-8.12,11.99-6.65,5.15,1.47,8.14,6.84,6.67,11.99-1.49,5.15-6.84,8.12-11.99,6.65-5.15-1.47-8.14-6.84-6.67-11.99ZM494.05,208.78c-.05.9-.21,1.82-.48,2.72-1.91,6.68-8.9,10.58-15.58,8.67-1.01-.3-1.95-.69-2.81-1.2-4.23-2.42-6.7-7.14-6.28-12.04.07-.78.21-1.56.44-2.35,1.91-6.69,8.9-10.56,15.58-8.65.88.25,1.72.58,2.49,1.01,4.31,2.32,6.91,6.97,6.63,11.85Z"/>
  </g>
</svg>